{"title":"18+ Amazon Hot Box 2018 UNCENSORED Movies 720p HDRip x264 5.1 +S","magnet":"magnet:?xt=urn:btih:5c955f65ee7d1f95970179446afb4f7ac84d323c&dn=18%2B+Amazon+Hot+Box+2018+UNCENSORED+Movies+720p+HDRip+x264+5.1+%2BS&tr=udp%3A%2F%2Ftracker.leechers-paradise.org%3A6969&tr=udp%3A%2F%2Fzer0day.ch%3A1337&tr=udp%3A%2F%2Fopen.demonii.com%3A1337&tr=udp%3A%2F%2Ftracker.coppersurfer.tk%3A6969&tr=udp%3A%2F%2Fexodus.desync.com%3A6969","uploader":"basicssom","categoryP":"video","categoryS":"hd___movies","size":"905211045","seeders":"1","leechers":"152","description":"18+ Amazon Hot Box 2018 UNCENSORED Movies 720p HDRip x264 5.1 with Sample &#x263B;rDX&#x263B;\r\n\r\nSCREEN SHOTS &amp; POSTER:\r\n   <a href=\"\nhttp://iphonehosting.eu/2018/9/dongal/index.html\" rel=\"nofollow\" target=\"_NEW\">\nhttp://iphonehosting.eu/2018/9/dongal/index.html</a> <a href=\"\nhttp://iphonehosting.eu/2018/9/dongal/1.html\" rel=\"nofollow\" target=\"_NEW\">\nhttp://iphonehosting.eu/2018/9/dongal/1.html</a> <a href=\"\nhttp://iphonehosting.eu/2018/9/dongal/2.html\" rel=\"nofollow\" target=\"_NEW\">\nhttp://iphonehosting.eu/2018/9/dongal/2.html</a>   <a href=\"\nhttp://iphonehosting.eu/2018/9/dongal/3.html\" rel=\"nofollow\" target=\"_NEW\">\nhttp://iphonehosting.eu/2018/9/dongal/3.html</a>   <a href=\"\nhttp://iphonehosting.eu/2018/9/dongal/4.html\" rel=\"nofollow\" target=\"_NEW\">\nhttp://iphonehosting.eu/2018/9/dongal/4.html</a>   <a href=\"\nhttp://iphonehosting.eu/2018/9/dongal/5.html\" rel=\"nofollow\" target=\"_NEW\">\nhttp://iphonehosting.eu/2018/9/dongal/5.html</a>   <a href=\"\nhttp://iphonehosting.eu/2018/9/dongal/6.html\" rel=\"nofollow\" target=\"_NEW\">\nhttp://iphonehosting.eu/2018/9/dongal/6.html</a>   <a href=\"\nhttp://iphonehosting.eu/2018/9/dongal/7.html\" rel=\"nofollow\" target=\"_NEW\">\nhttp://iphonehosting.eu/2018/9/dongal/7.html</a>   <a href=\"\nhttp://iphonehosting.eu/2018/9/dongal/8.html\" rel=\"nofollow\" target=\"_NEW\">\nhttp://iphonehosting.eu/2018/9/dongal/8.html</a>   <a href=\"\nhttp://iphonehosting.eu/2018/9/dongal/9.html\" rel=\"nofollow\" target=\"_NEW\">\nhttp://iphonehosting.eu/2018/9/dongal/9.html</a>   <a href=\"\nhttp://iphonehosting.eu/2018/9/dongal/10.html\" rel=\"nofollow\" target=\"_NEW\">\nhttp://iphonehosting.eu/2018/9/dongal/10.html</a>\r\n\r\nFile size                                : 853 MiB\r\nDuration                                 : 1 h 22 min\r\nOverall bit rate mode                    : Constant\r\nOverall bit rate                         : 1 440 kb/s\r\nMovie name                               : 18+ Amazon Hot Box 2018 UNCENSORED Movies 720p HDRip x264 5.1 &#x263B;rDX&#x263B;\r\n\r\nVideo\r\nID                                       : 2\r\nFormat                                   : AVC\r\nFormat/Info                              : Advanced Video Codec\r\nFormat profile                           : Main@L3.1\r\nFormat settings, CABAC                   : Yes\r\nFormat settings, ReFrames                : 2 frames\r\nFormat settings, GOP                     : M=1, N=25\r\nCodec ID                                 : V_MPEG4/ISO/AVC\r\nDuration                                 : 1 h 22 min\r\nBit rate mode                            : Constant\r\nBit rate                                 : 1 250 kb/s\r\nWidth                                    : 1 280 pixels\r\nHeight                                   : 540 pixels\r\nDisplay aspect ratio                     : 2.40:1\r\nFrame rate mode                          : Constant\r\nFrame rate                               : 29.970 (30000/1001) FPS\r\nColor space                              : YUV\r\nChroma subsampling                       : 4:2:0\r\nBit depth                                : 8 bits\r\nScan type                                : Progressive\r\nBits/(Pixel*Frame)                       : 0.060\r\nStream size                              : 722 MiB (85%)\r\nTitle                                    : &#x263B;rDX&#x263B;\r\nDefault                                  : Yes\r\nForced                                   : No\r\n\r\nAudio\r\nID                                       : 1\r\nFormat                                   : AC-3\r\nFormat/Info                              : Audio Coding 3\r\nMode extension                           : CM (complete main)\r\nFormat settings, Endianness              : Big\r\nCodec ID                                 : A_AC3\r\nDuration                                 : 1 h 22 min\r\nBit rate mode                            : Constant\r\nBit rate                                 : 192 kb/s\r\nChannel(s)                               : 6 channels\r\nChannel positions                        : Front: L C R, Side: L R, LFE\r\nSampling rate                            : 48.0 kHz\r\nFrame rate                               : 31.250 FPS (1536 spf)\r\nBit depth                                : 16 bits\r\nCompression mode                         : Lossy\r\nStream size                              : 114 MiB (13%)\r\nDefault                                  : Yes\r\nForced                                   : No\r\n <a href=\"\nhttps://www.imdb.com/title/tt8178992/\" rel=\"nofollow\" target=\"_NEW\">\nhttps://www.imdb.com/title/tt8178992/</a>","last_updated":"2018-09-17T12:12:50.222Z","parsed":{"xt":"urn:btih:5c955f65ee7d1f95970179446afb4f7ac84d323c","dn":"18  Amazon Hot Box 2018 UNCENSORED Movies 720p HDRip x264 5.1  S","tr":["udp://exodus.desync.com:6969","udp://open.demonii.com:1337","udp://tracker.coppersurfer.tk:6969","udp://tracker.leechers-paradise.org:6969","udp://zer0day.ch:1337"],"infoHash":"5c955f65ee7d1f95970179446afb4f7ac84d323c","infoHashBuffer":{"type":"Buffer","data":[92,149,95,101,238,125,31,149,151,1,121,68,106,251,79,122,200,77,50,60]},"name":"18  Amazon Hot Box 2018 UNCENSORED Movies 720p HDRip x264 5.1  S","announce":["udp://exodus.desync.com:6969","udp://open.demonii.com:1337","udp://tracker.coppersurfer.tk:6969","udp://tracker.leechers-paradise.org:6969","udp://zer0day.ch:1337"],"urlList":[]}}